<svg id="Layer_1" data-name="Layer 1" xmlns="http://www.w3.org/2000/svg" viewBox="0 0 726 140"><defs><style>.cls-1{fill:#2e4426;}</style></defs><path class="cls-1" d="M124.09,111.67v-2l1.62-.54a4.64,4.64,0,0,0,3-1.83,6.43,6.43,0,0,0,.81-3.45V72.21a7.71,7.71,0,0,0-.86-3.61,4.17,4.17,0,0,0-2.91-1.67l-1.62-.43V64.56l17.57-6.26L143,59.49l1,9.49v.75A25.47,25.47,0,0,1,148,64.12a22.91,22.91,0,0,1,5.39-4.2,11.87,11.87,0,0,1,5.82-1.62c2.74,0,4.78.72,6.15,2.16a7.69,7.69,0,0,1,2.05,5.5,7.2,7.2,0,0,1-2.05,5.55,7.06,7.06,0,0,1-5,1.89A9.31,9.31,0,0,1,153,69.51l-.21-.21a3.77,3.77,0,0,0-2.43-1.46,3.06,3.06,0,0,0-2.64,1.35,14.4,14.4,0,0,0-2,2.53,20.72,20.72,0,0,0-1.67,3.4v28.25a6.14,6.14,0,0,0,.87,3.39,4.66,4.66,0,0,0,2.91,1.89l3.23,1v2Z"/><path class="cls-1" d="M184.46,113.18a15.82,15.82,0,0,1-10.4-3.51q-4.26-3.49-4.26-10.08,0-5.18,5-9.54t15.8-6.41q1.83-.44,4.26-.81c1.61-.25,3.21-.52,4.79-.81V74.37q0-7.34-1.83-10.14a6.44,6.44,0,0,0-5.82-2.8h-.32A5.12,5.12,0,0,0,187.75,63a9,9,0,0,0-1.88,5.12l-.33,1.4c-.21,2.88-1,5-2.26,6.31a6.5,6.5,0,0,1-4.85,2A6.31,6.31,0,0,1,174,76.15a5.75,5.75,0,0,1-1.78-4.37,10.11,10.11,0,0,1,3-7.44,18.82,18.82,0,0,1,8-4.53,37.72,37.72,0,0,1,10.84-1.51q9.6,0,14.66,4.64T213.79,78v24q0,4.64,4.42,4.64h2.48l1.08,1.19a15,15,0,0,1-4.32,3.82,13.09,13.09,0,0,1-6.47,1.35,11.45,11.45,0,0,1-7.38-2.21A10.3,10.3,0,0,1,200,105a41.33,41.33,0,0,1-6.79,5.93A15.3,15.3,0,0,1,184.46,113.18Zm6.26-6.9a9.11,9.11,0,0,0,4.09-1,31.07,31.07,0,0,0,4.85-3.24V84.82c-1.86.29-3.77.65-5.71,1.08a15,15,0,0,0-7.49,4,10.74,10.74,0,0,0-2.86,7.87c0,2.88.66,5,2,6.42A6.72,6.72,0,0,0,190.72,106.28Z"/><path class="cls-1" d="M223.92,111.67v-2l1.73-.43q3.56-1.08,3.55-5.28V72.1a8.56,8.56,0,0,0-.75-3.5,3.75,3.75,0,0,0-2.8-1.67l-1.73-.43V64.56l17.47-6.26,1.29,1.19.76,6.68a35.22,35.22,0,0,1,8.67-5.66,22.52,22.52,0,0,1,9.44-2.21q7.11,0,10.94,3.88T276.32,74v30q0,4.21,3.88,5.29l1.19.32v2h-24.8v-2l1.62-.43q3.56-1.18,3.55-5.28v-32q0-3.78-1.61-5.5t-5.39-1.73q-5.3,0-11,4.64V104q0,4.21,3.77,5.29l1.08.32v2Z"/><path class="cls-1" d="M309.09,93.23a28.58,28.58,0,0,1-12.18-2.37v3.88a3.6,3.6,0,0,0,3.23,3.88l19.19,3.56a63.06,63.06,0,0,1,9.71,2.64,15.21,15.21,0,0,1,6.57,4.42A11.72,11.72,0,0,1,338,117a15.66,15.66,0,0,1-3.39,9.65,23.57,23.57,0,0,1-10,7.22q-6.63,2.76-16.55,2.75-8.52,0-13.53-1.78t-7.17-4.58a9.69,9.69,0,0,1-2.15-6,13.74,13.74,0,0,1,2.64-7.76,22.43,22.43,0,0,1,6.84-6.47q-6.57-2.47-6.57-7.87a7.54,7.54,0,0,1,1-3.77,25.33,25.33,0,0,1,2.37-3.45L295.29,90q-7.76-4.53-7.76-14.13a16.1,16.1,0,0,1,5.55-12.72q5.55-4.84,16-4.85t16.17,4.85a30.57,30.57,0,0,0,6.47-1.72,21.9,21.9,0,0,0,5.61-3.24l1.51,1.08v6H327.2a16.37,16.37,0,0,1,3.45,10.56,15.84,15.84,0,0,1-5.55,12.51Q319.55,93.24,309.09,93.23Zm-15.52,27.82q0,5.92,3.77,8.89t12,3q9,0,13.42-3a9.06,9.06,0,0,0,4.37-7.81,5.7,5.7,0,0,0-2.21-4.75q-2.22-1.72-7.39-2.69l-19.3-3.78-.86-.21a20.27,20.27,0,0,0-2.7,5A15.15,15.15,0,0,0,293.57,121.05Zm15.31-30.73a7.17,7.17,0,0,0,6.63-3.5q2.1-3.51,2.1-11.27t-2.05-11a6.94,6.94,0,0,0-6.36-3.35,7,7,0,0,0-6.42,3.4q-2.1,3.39-2.1,11.16t1.94,11.16A6.67,6.67,0,0,0,308.88,90.32Z"/><path class="cls-1" d="M368,58.3a22.92,22.92,0,0,1,11.65,2.81,19.27,19.27,0,0,1,7.49,7.7,23.42,23.42,0,0,1,2.64,11.27c0,.93,0,1.82-.11,2.64a11.1,11.1,0,0,1-.43,2.32H356.74q.11,11.1,4.15,16t11.81,4.85a18.65,18.65,0,0,0,8.73-1.78,21.62,21.62,0,0,0,6.15-5l1.72,1.62a23.52,23.52,0,0,1-8.79,9.22,25.45,25.45,0,0,1-13.2,3.29,27.25,27.25,0,0,1-13.48-3.24,22.73,22.73,0,0,1-9.11-9.32A30.37,30.37,0,0,1,341.43,86a27.85,27.85,0,0,1,3.83-15,26.28,26.28,0,0,1,9.92-9.43A26.55,26.55,0,0,1,368,58.3Zm-.53,3.13A8.68,8.68,0,0,0,362,63.21c-1.55,1.18-2.77,3.27-3.66,6.25A50.45,50.45,0,0,0,356.74,82H376q1.18-10.89-.86-15.74T367.42,61.43Z"/><path class="cls-1" d="M455.93,113.5a39,39,0,0,1-19.3-4.63,32.94,32.94,0,0,1-13-13.1A40.41,40.41,0,0,1,419,75.87a40.34,40.34,0,0,1,4.58-19.62,32.08,32.08,0,0,1,13.31-13.1q8.73-4.68,20.92-4.68a43.33,43.33,0,0,1,10.83,1.29A39.38,39.38,0,0,1,478,43.53L478.46,59h-2.91l-5.39-10.89a15.08,15.08,0,0,0-2.48-3.77,7,7,0,0,0-3.13-1.73,11.46,11.46,0,0,0-2.7-.7,27.43,27.43,0,0,0-3.34-.16,20.85,20.85,0,0,0-12,3.5q-5.18,3.51-8,11t-2.85,19.62q0,18.22,6,26.37a18.9,18.9,0,0,0,16,8.13,11.73,11.73,0,0,0,4.1-.64,3.63,3.63,0,0,0,2.8-1.67,6.92,6.92,0,0,0,.76-3.4c0-3,0-6.16-.06-9.65s-.05-6.66-.05-9.54-1.48-4.53-4.42-5.17l-4.85-1.08V77h29.75v2.27l-1.29.32a6.66,6.66,0,0,0-3.13,1.89,5,5,0,0,0-1.08,3.39q0,4.32-.05,8.79t-.06,9v4.64a55.24,55.24,0,0,1-11.37,4.63A47.17,47.17,0,0,1,455.93,113.5Z"/><path class="cls-1" d="M489.56,111.67v-2l1.62-.54a4.61,4.61,0,0,0,3-1.83,6.43,6.43,0,0,0,.81-3.45V72.21a7.71,7.71,0,0,0-.86-3.61,4.13,4.13,0,0,0-2.91-1.67l-1.62-.43V64.56l17.57-6.26,1.3,1.19,1,9.49v.75a25.52,25.52,0,0,1,4.1-5.61,22.91,22.91,0,0,1,5.39-4.2,11.87,11.87,0,0,1,5.82-1.62q4.1,0,6.14,2.16a7.65,7.65,0,0,1,2,5.5,7.17,7.17,0,0,1-2,5.55,7,7,0,0,1-5,1.89,9.29,9.29,0,0,1-7.43-3.89l-.22-.21a3.77,3.77,0,0,0-2.43-1.46,3.06,3.06,0,0,0-2.64,1.35,14.36,14.36,0,0,0-2,2.53,20,20,0,0,0-1.67,3.4v28.25a6.14,6.14,0,0,0,.86,3.39,4.66,4.66,0,0,0,2.91,1.89l3.23,1v2Z"/><path class="cls-1" d="M561.79,113.18a28.24,28.24,0,0,1-14-3.34,23.16,23.16,0,0,1-9.27-9.49,30.72,30.72,0,0,1-3.29-14.66A29.12,29.12,0,0,1,538.78,71a24.21,24.21,0,0,1,9.48-9.43,29.47,29.47,0,0,1,27.06,0A24.24,24.24,0,0,1,584.81,71a29,29,0,0,1,3.51,14.72A31,31,0,0,1,585,100.4a22.81,22.81,0,0,1-9.22,9.49A28.49,28.49,0,0,1,561.79,113.18Zm0-3a9.3,9.3,0,0,0,6.31-2.1c1.62-1.4,2.79-3.87,3.51-7.39a78.84,78.84,0,0,0,1.07-14.77A80.62,80.62,0,0,0,571.61,71q-1.08-5.34-3.51-7.44a9.3,9.3,0,0,0-6.31-2.1,9.09,9.09,0,0,0-6.25,2.1q-2.37,2.1-3.5,7.44a75.64,75.64,0,0,0-1.13,14.93A74,74,0,0,0,552,100.67c.75,3.52,1.92,6,3.5,7.39A9.09,9.09,0,0,0,561.79,110.16Z"/><path class="cls-1" d="M616.56,112l-19-45.6a6.15,6.15,0,0,0-4.21-3.88L591.12,62v-2h27.27v2l-2.8.64c-2.3.58-3,2-2.05,4.43l11.32,30.07,10.57-29.86a5.94,5.94,0,0,0,.27-3c-.18-.76-.88-1.28-2.1-1.57L630.47,62v-2h16.39v2l-3.56.86a5.62,5.62,0,0,0-4.21,3.88L622.82,112Z"/><path class="cls-1" d="M673.92,58.3a22.85,22.85,0,0,1,11.64,2.81,19.2,19.2,0,0,1,7.49,7.7,23.31,23.31,0,0,1,2.65,11.27c0,.93,0,1.82-.11,2.64a11.79,11.79,0,0,1-.43,2.32H662.71q.1,11.1,4.15,16t11.8,4.85a18.66,18.66,0,0,0,8.74-1.78,21.72,21.72,0,0,0,6.14-5l1.73,1.62a23.66,23.66,0,0,1-8.79,9.22,25.49,25.49,0,0,1-13.21,3.29,27.23,27.23,0,0,1-13.47-3.24,22.67,22.67,0,0,1-9.11-9.32A30.26,30.26,0,0,1,647.4,86q0-8.83,3.82-15a26.28,26.28,0,0,1,9.92-9.43A26.56,26.56,0,0,1,673.92,58.3Zm-.54,3.13a8.63,8.63,0,0,0-5.44,1.78c-1.55,1.18-2.77,3.27-3.67,6.25A50.06,50.06,0,0,0,662.71,82H682q1.18-10.89-.86-15.74T673.38,61.43Z"/><path class="cls-1" d="M713.48,113.18a8.85,8.85,0,0,1-6.41-2.59,8.43,8.43,0,0,1-2.64-6.25,8.92,8.92,0,0,1,2.64-6.47,9,9,0,0,1,12.83,0,8.92,8.92,0,0,1,2.64,6.47,8.43,8.43,0,0,1-2.64,6.25A8.85,8.85,0,0,1,713.48,113.18Z"/><path class="cls-1" d="M39,14c-1.7.91-3.23,1.63-4.66,2.51A47,47,0,0,0,15.58,37.64,46,46,0,0,0,11.63,60.7,46.21,46.21,0,0,0,27,91.84a45.48,45.48,0,0,0,21.35,11.07,46.93,46.93,0,0,0,21.79-.35,46.21,46.21,0,0,0,21-11.69c1.64-1.57,1.63-1.58,3.26,0,1.08,1,2.14,2.1,3.27,3.08.68.59.59,1,0,1.57a54.75,54.75,0,0,1-12.73,9.65,53.73,53.73,0,0,1-29.35,6.63,53.64,53.64,0,0,1-33.72-14A54.77,54.77,0,0,1,4,50.28a54.8,54.8,0,0,1,35.9-45,54.53,54.53,0,0,1,22-3.13,54.81,54.81,0,0,1,45.05,29,55.29,55.29,0,0,1,5.43,15.4,56,56,0,0,1,.64,16.94c-.29,2.58-.94,5.12-1.43,7.67a1.41,1.41,0,0,1-1.12,1.18,56.07,56.07,0,0,1-21.23,2.39,54.38,54.38,0,0,1-23.54-7.44,53.77,53.77,0,0,1-23.39-27.9A53.75,53.75,0,0,1,39,15.46C39,15.08,39,14.7,39,14Zm7.93,2.61c-1.38,10.56,2.65,29.26,18.72,41.08C75.68,65.14,87,68,99.5,66.7Zm5.32-6.38c.41.47.64.77.9,1,3,2.81,5.92,5.61,8.85,8.44a2.33,2.33,0,0,0,1.83.7c7.4-.21,14.8-.38,22.2-.57.34,0,.67-.06,1-.1a43.87,43.87,0,0,0-19.6-9A48.4,48.4,0,0,0,52.21,10.27ZM71,28.13a2.57,2.57,0,0,0,.3.47c2.9,2.76,5.79,5.54,8.72,8.27a2.24,2.24,0,0,0,1.41.45c6.13-.12,12.25-.28,18.37-.44a9.25,9.25,0,0,0,1.11-.16,8.54,8.54,0,0,0-.46-1.11q-2.31-3.74-4.66-7.43a1.52,1.52,0,0,0-1.48-.7q-11.14.32-22.28.57C71.75,28.06,71.47,28.1,71,28.13ZM89.07,45l16.3,15.47a2.28,2.28,0,0,0,.12-.57,49.08,49.08,0,0,0-1.3-14.24c-.24-.92-.67-1.09-1.5-1.07-4.27.14-8.54.23-12.8.34C89.6,44.94,89.32,45,89.07,45Z"/></svg>